# xmcd
#
# Track frame offsets:
#	150
#	15267
#	37288
#	54432
#	79563
#	94068
#	113272
#	127034
#	137941
#	157515
#
# Disc length: 2461 seconds
#
# Revision: 0
# Processed by: cddbd v1.5.1PL2 Copyright (c) Steve Scherf et al.
# Submitted via: dBpowerAMP V4.0
#
DISCID=6e099b0a
DTITLE=Darrin Craig - A Horse Named Daryl
DYEAR=1900
DGENRE=Country
TTITLE0=Angel Wings
TTITLE1=Banks Brothers
TTITLE2=Roll On Pretty Mama
TTITLE3=Train To Mexico
TTITLE4=Caroline
TTITLE5=First Move
TTITLE6=Lonesome Town
TTITLE7=Harlow's Lullaby
TTITLE8=Winter Spell
TTITLE9=Baby Blue
EXTD=Copyright Daryl Riley Music 2004
EXTT0=
EXTT1=
EXTT2=
EXTT3=
EXTT4=
EXTT5=
EXTT6=
EXTT7=
EXTT8=
EXTT9=
PLAYORDER=
